<?xml version="1.0" encoding="iso-8859-1"?>
<!-- Generator: Adobe Illustrator 19.0.0, SVG Export Plug-In . SVG Version: 6.00 Build 0)  -->
<svg version="1.1" id="Capa_1" xmlns="http://www.w3.org/2000/svg" xmlns:xlink="http://www.w3.org/1999/xlink" x="0px" y="0px"
	 viewBox="0 0 512 512" style="enable-background:new 0 0 512 512;" xml:space="preserve">
<rect x="105.51" y="47.825" style="fill:#86D5B5;" width="31.508" height="56.626"/>
<path style="fill:#3EAF91;" d="M77.021,157.799h88.49c0.255,0,0.507,0.017,0.762,0.02c0.021-0.191,0.059-0.38,0.059-0.577v-51.828
	c0-2.833-2.318-5.151-5.151-5.151H81.352c-2.832,0-5.15,2.318-5.15,5.151v51.828c0,0.197,0.037,0.386,0.059,0.577
	C76.515,157.815,76.766,157.799,77.021,157.799z"/>
<path style="opacity:0.1;fill:#231F20;enable-background:new    ;" d="M77.021,157.799H98.44c-0.021-0.186-0.057-0.367-0.057-0.558
	v-51.828c0-2.833,2.317-5.151,5.15-5.151H81.352c-2.832,0-5.15,2.318-5.15,5.151v51.828c0,0.197,0.037,0.386,0.059,0.577
	C76.515,157.815,76.766,157.799,77.021,157.799z"/>
<path style="fill:#E23C38;" d="M0,497.226c0,2.833,2.318,5.15,5.15,5.15h232.23c2.833,0,5.151-2.317,5.151-5.15V460.78H0V497.226z"
	/>
<path style="opacity:0.1;fill:#231F20;enable-background:new    ;" d="M27.891,497.226V460.78H0v36.446
	c0,2.833,2.318,5.15,5.15,5.15h27.891C30.208,502.376,27.891,500.059,27.891,497.226z"/>
<path style="fill:#EF5A50;" d="M165.511,154.622h-88.49C34.484,154.622,0,189.634,0,232.823h242.532
	C242.532,189.634,208.048,154.622,165.511,154.622z"/>
<rect y="232.82" style="fill:#E6E9ED;" width="242.53" height="227.96"/>
<path style="opacity:0.1;fill:#231F20;enable-background:new    ;" d="M104.91,154.622H77.02C34.484,154.622,0,189.634,0,232.823
	v227.956h27.891V232.823C27.891,189.634,62.374,154.622,104.91,154.622z"/>
<ellipse style="fill:#3EAF91;" cx="121.27" cy="332.66" rx="55.717" ry="56.57"/>
<path style="opacity:0.1;fill:#231F20;enable-background:new    ;" d="M88.08,332.658c0-27.325,19.082-50.124,44.452-55.413
	c-3.639-0.759-7.406-1.158-11.267-1.158c-30.771,0-55.718,25.328-55.718,56.571s24.947,56.573,55.718,56.573
	c3.86,0,7.628-0.399,11.267-1.158C107.162,382.783,88.08,359.983,88.08,332.658z"/>
<path style="fill:#86D5B5;" d="M222.632,17.337H163.13v15h57.153v25.778c0,4.143,3.357,7.5,7.5,7.5s7.5-3.357,7.5-7.5V29.988
	C235.283,23.013,229.607,17.337,222.632,17.337z"/>
<path style="fill:#3EAF91;" d="M166.331,47.111c0,2.833-2.318,5.15-5.151,5.15H81.352c-2.832,0-5.15-2.317-5.15-5.15V14.774
	c0-2.832,2.318-5.15,5.15-5.15h79.828c2.833,0,5.151,2.318,5.151,5.15V47.111z"/>
<path style="opacity:0.1;fill:#231F20;enable-background:new    ;" d="M98.383,47.111V14.774c0-2.832,2.317-5.15,5.15-5.15H81.352
	c-2.832,0-5.15,2.318-5.15,5.15v32.337c0,2.833,2.318,5.15,5.15,5.15h22.182C100.7,52.262,98.383,49.944,98.383,47.111z"/>
<path style="fill:#B1E8FF;" d="M512,190.201c0,36.793-29.376,66.62-65.615,66.62c-36.236,0-65.612-29.827-65.612-66.62
	c0-36.797,29.376-66.626,65.612-66.626C482.624,123.575,512,153.404,512,190.201z"/>
<path style="opacity:0.1;fill:#231F20;enable-background:new    ;" d="M465.442,239.869c-36.235,0-65.611-29.827-65.611-66.619
	c0-15.331,5.112-29.442,13.683-40.7c-19.57,11.53-32.741,33.021-32.741,57.651c0,36.793,29.376,66.62,65.612,66.62
	c21.142,0,39.936-10.162,51.936-25.927C488.65,236.592,477.427,239.869,465.442,239.869z"/>
<ellipse style="fill:#D7F7FF;" cx="328.72" cy="269.6" rx="28.25" ry="28.683"/>
<path style="fill:#FFCFAB;" d="M241.787,431.18h191.27c14.371-9.539,23.85-26.182,23.828-45.377
	c-0.033-30.449-23.479-48.777-52.815-44.652c-44.267,5.511-89.03,5.511-133.297,0c-29.336-4.125-52.783,14.203-52.815,44.652
	C217.936,404.998,227.416,421.641,241.787,431.18z"/>
<path style="opacity:0.1;fill:#231F20;enable-background:new    ;" d="M241.787,431.18h27.815
	c-14.371-9.539-23.851-26.182-23.83-45.377c0.024-22.971,13.378-39.035,32.529-43.774c-2.511-0.276-5.021-0.566-7.529-0.878
	c-29.336-4.125-52.783,14.203-52.815,44.652C217.936,404.998,227.416,421.641,241.787,431.18z"/>
<path style="fill:#86D5B5;" d="M214.592,457.278l13.454,40.213c0.898,2.688,3.952,4.885,6.785,4.885h205.181
	c2.833,0,5.887-2.197,6.785-4.885l13.455-40.213H214.592z"/>
<path style="opacity:0.1;fill:#231F20;enable-background:new    ;" d="M256.219,497.491l-13.454-40.213h-28.173l13.454,40.213
	c0.898,2.688,3.952,4.885,6.785,4.885h28.173C260.171,502.376,257.117,500.179,256.219,497.491z"/>
<path style="fill:#3EAF91;" d="M481.177,455.849c0,2.833-2.317,5.151-5.15,5.151H198.814c-2.833,0-5.15-2.318-5.15-5.151v-22.976
	c0-2.833,2.317-5.151,5.15-5.151h277.212c2.833,0,5.15,2.318,5.15,5.151v22.976H481.177z"/>
<path style="opacity:0.1;fill:#231F20;enable-background:new    ;" d="M221.911,455.849v-22.976c0-2.833,2.318-5.151,5.151-5.151
	h-28.248c-2.833,0-5.15,2.318-5.15,5.151v22.976c0,2.833,2.317,5.151,5.15,5.151h28.248C224.23,461,221.911,458.682,221.911,455.849
	z"/>
<g>
</g>
<g>
</g>
<g>
</g>
<g>
</g>
<g>
</g>
<g>
</g>
<g>
</g>
<g>
</g>
<g>
</g>
<g>
</g>
<g>
</g>
<g>
</g>
<g>
</g>
<g>
</g>
<g>
</g>
</svg>
