<?xml version="1.0" encoding="iso-8859-1"?>
<!-- Generator: Adobe Illustrator 19.0.0, SVG Export Plug-In . SVG Version: 6.00 Build 0)  -->
<svg version="1.1" id="Capa_1" xmlns="http://www.w3.org/2000/svg" xmlns:xlink="http://www.w3.org/1999/xlink" x="0px" y="0px"
	 viewBox="0 0 512 512" style="enable-background:new 0 0 512 512;" xml:space="preserve">
<path style="fill:#1689FC;" d="M512,181v150c0,84-112.899,150-256,150S0,415,0,331V181c0-8.401,6.599-15,15-15h482
	C505.401,166,512,172.599,512,181z"/>
<path style="fill:#136EF1;" d="M512,181v150c0,84-112.899,150-256,150V166h241C505.401,166,512,172.599,512,181z"/>
<path style="fill:#E5E5E5;" d="M256,31C112.899,31,0,97,0,181c0,50.7,43.001,97.2,113.5,124.799c4.501,1.8,7.5,5.7,7.5,10.201v30
	c0,24.899,20.099,45,45,45h180c24.901,0,45-20.101,45-45v-30c0-4.501,2.999-8.401,7.5-10.201C468.999,278.2,512,231.7,512,181
	C512,97,399.101,31,256,31z"/>
<path style="fill:#D9D9D9;" d="M512,181c0,50.7-43.001,97.2-113.5,124.799c-4.501,1.8-7.5,5.7-7.5,10.201v30
	c0,24.899-20.099,45-45,45h-90V31C399.101,31,512,97,512,181z"/>
<path style="fill:#1689FC;" d="M451,181c0,17.999-15.901,37.2-42.599,53.399l-31.201,5.7C354.401,203.5,307.899,181,256,181
	c-43.801,0-85.201,16.8-110.7,45l-41.4,8.699C77.199,218.5,61,198.999,61,181c0-41.7,85.201-90,195-90S451,139.3,451,181z"/>
<path style="fill:#17ACE8;" d="M408.401,234.399c-8.101,4.801-17.1,9.3-26.7,13.2c-1.8,0.901-3.3,1.8-5.099,2.401
	C348.999,260.799,331,286.599,331,316c0,8.399-6.599,15-15,15H196c-8.401,0-15-6.601-15-15c0-29.401-17.999-55.201-45.601-66
	c-1.8-0.601-2.999-1.5-4.799-2.1c-9.6-3.9-18.6-8.399-26.7-13.2c5.099-10.199,11.1-20.099,19.2-28.801
	C153.999,171.4,203.8,151,256,151c62.1,0,118.2,27.9,146.7,72.9C404.801,227.5,406.601,230.799,408.401,234.399z"/>
<path style="fill:#136EF1;" d="M451,181c0,17.999-15.901,37.2-42.599,53.399l-31.201,5.7C354.401,203.5,307.899,181,256,181V91
	C365.799,91,451,139.3,451,181z"/>
<path style="fill:#1689FC;" d="M408.401,234.399c-8.101,4.801-17.1,9.3-26.7,13.2c-1.8,0.901-3.3,1.8-5.099,2.401
	C348.999,260.799,331,286.599,331,316c0,8.399-6.599,15-15,15h-60V151c62.1,0,118.2,27.9,146.7,72.9
	C404.801,227.5,406.601,230.799,408.401,234.399z"/>
<g>
</g>
<g>
</g>
<g>
</g>
<g>
</g>
<g>
</g>
<g>
</g>
<g>
</g>
<g>
</g>
<g>
</g>
<g>
</g>
<g>
</g>
<g>
</g>
<g>
</g>
<g>
</g>
<g>
</g>
</svg>
