<svg height="470pt" viewBox="-99 0 470 470.58" width="470pt" xmlns="http://www.w3.org/2000/svg"><path d="m206.601562 62.640625 65.648438-62.640625v62.640625l-49.558594 120.46875-47.011718-29.03125-39.410157-24.339844zm0 0" fill="#00efd1"/><path d="m272.25 0-65.648438 62.640625h-140.292968l-.179688.179687-65.839844-62.820312zm0 0" fill="#00acea"/><path d="m206.601562 62.640625-70.332031 67.097656-70.140625-66.917969.179688-.179687zm0 0" fill="#fedb41"/><path d="m201.359375 382.78125 3.652344 23.867188-22.371094 20.8125-108.859375-58.320313 8.980469-53.921875zm0 0" fill="#00acea"/><path d="m190.808594 313.75 10.550781 69.03125-118.597656-67.5625 10.277343-61.738281zm0 0" fill="#fedb41"/><path d="m181.429688 252.441406 9.378906 61.308594-97.769532-60.269531 8.871094-53.28125zm0 0" fill="#00acea"/><path d="m182.640625 427.460938-46.371094 43.117187-68.738281-63.929687 6.25-37.507813zm0 0" fill="#fedb41"/><path d="m170.109375 178.371094 11.320313 74.070312-79.519532-52.242187 3.640625-21.828125zm0 0" fill="#fedb41"/><path d="m175.679688 154.078125-5.570313 24.292969h-64.558594l-6.859375-25.421875 37.578125-23.210938zm0 0" fill="#00acea"/><path d="m98.691406 152.949219-48.839844 30.160156-49.5625-120.46875v-62.640625l65.839844 62.820312 70.140625 66.917969zm0 0" fill="#00efd1"/></svg>